<?xml version="1.0" ?><svg viewBox="0 0 64 64" xmlns="http://www.w3.org/2000/svg"><g id="outling-cut"><path d="M46.169,28.187a1,1,0,1,0,.406,1.958A7,7,0,1,1,41,37a6.954,6.954,0,0,1,2.012-4.911,1,1,0,0,0-1.426-1.4A9,9,0,1,0,48,28,9.043,9.043,0,0,0,46.169,28.187Z"/><path d="M16.245,46a9,9,0,1,0,0-18,1,1,0,0,0,0,2,7,7,0,1,1-4.376,1.537,1,1,0,0,0-1.252-1.561A9,9,0,0,0,16.245,46Z"/><path d="M16.245,34a1,1,0,1,0,0-2,5,5,0,0,0,0,10,1,1,0,1,0,0-2,3,3,0,0,1,0-6Z"/><path d="M19.24,40.96a1.207,1.207,0,0,0,.2-.02.7.7,0,0,0,.191-.06.719.719,0,0,0,.17-.09l.15-.12a.99.99,0,0,0,0-1.42,1.034,1.034,0,0,0-1.41,0,.836.836,0,0,0-.221.33,1,1,0,0,0,.221,1.09A1.024,1.024,0,0,0,19.24,40.96Z"/><path d="M48,34a1,1,0,0,0,0-2,5,5,0,0,0,0,10,1,1,0,0,0,0-2,3,3,0,0,1,0-6Z"/><path d="M50.17,40.51a.955.955,0,0,0,.12.16,1.029,1.029,0,0,0,.71.29.99.99,0,0,0,1-1,1.033,1.033,0,0,0-.29-.71,1.047,1.047,0,0,0-1.42,0,1.576,1.576,0,0,0-.12.15.757.757,0,0,0-.09.18.636.636,0,0,0-.06.18,1.355,1.355,0,0,0-.02.2,1.225,1.225,0,0,0,.02.19.6.6,0,0,0,.06.19A.556.556,0,0,0,50.17,40.51Z"/><path d="M37.38,13.58a1,1,0,0,0-.76,0,.782.782,0,0,0-.181.09l-.149.12a1.014,1.014,0,0,0,0,1.42,1.7,1.7,0,0,0,.149.12.782.782,0,0,0,.181.09,1,1,0,0,0,.38.08.838.838,0,0,0,.38-.08,1.169,1.169,0,0,0,.33-.21,1.014,1.014,0,0,0,0-1.42A1.169,1.169,0,0,0,37.38,13.58Z"/><path d="M40,13.5a1,1,0,0,0,0,2h4a1,1,0,0,0,0-2Z"/><path d="M22,13.5a1,1,0,0,0,0,2h5a1,1,0,0,0,0-2Z"/><path d="M3,39h.415a13.018,13.018,0,0,0,.474,2.022A.99.99,0,0,0,3,42a1,1,0,0,0,1,1h.724a12.992,12.992,0,1,0,23-12.092l.9-1.5a8.049,8.049,0,0,0,.465-.9h5.822a8.049,8.049,0,0,0,.465.9l1.038,1.73a12.991,12.991,0,1,0,14.212-6.867l-1.771-2.951A7.9,7.9,0,0,0,42.116,17.5c-.03,0-.058,0-.088.006A.28.28,0,0,0,42,17.5H35a3,3,0,0,0-3-3,1,1,0,0,0,0,2,1,1,0,1,1-1,1,1,1,0,0,0-2,0H22a.28.28,0,0,0-.028.006c-.03,0-.058-.006-.088-.006a7.9,7.9,0,0,0-6.739,3.816l-1.817,3.026A13.015,13.015,0,0,0,3.245,37H3a1,1,0,0,0,0,2Zm56-2A11,11,0,1,1,48,26,11.013,11.013,0,0,1,59,37ZM47.141,22.345l1,1.662c-.047,0-.091-.007-.138-.007a12.975,12.975,0,0,0-10.4,5.229l-.512-.854A5.861,5.861,0,0,1,42.116,19.5,5.889,5.889,0,0,1,47.141,22.345ZM29.78,19.5a2.964,2.964,0,0,0,4.44,0h2.668a7.951,7.951,0,0,0-1.612,1.987,7.786,7.786,0,0,0-.948,5.013H29.672a7.786,7.786,0,0,0-.948-5.013A7.929,7.929,0,0,0,27.112,19.5ZM16.859,22.345A5.889,5.889,0,0,1,21.884,19.5a5.861,5.861,0,0,1,5.025,8.875l-.4.672A12.975,12.975,0,0,0,16.245,24c-.132,0-.26.016-.391.02ZM16.245,26A11,11,0,1,1,6.787,42.588.973.973,0,0,0,7,42a1,1,0,0,0-.99-1,10.882,10.882,0,0,1-.589-2.1.982.982,0,0,0-.173-1.85c0-.017,0-.033,0-.05A11.013,11.013,0,0,1,16.245,26Z"/></g></svg>